<?xml version="1.0" standalone="no"?>
<!DOCTYPE svg PUBLIC "-//W3C//DTD SVG 20010904//EN"
 "http://www.w3.org/TR/2001/REC-SVG-20010904/DTD/svg10.dtd">
<svg version="1.0" xmlns="http://www.w3.org/2000/svg"
 width="740.000000pt" height="740.000000pt" viewBox="0 0 740.000000 740.000000"
 preserveAspectRatio="xMidYMid meet">

<g transform="translate(0.000000,740.000000) scale(0.100000,-0.100000)"
fill="#000000" stroke="none">
<path d="M4658 6123 c-20 -2 -42 -11 -48 -19 -7 -8 -22 -14 -34 -14 -13 0 -32
-11 -44 -25 -12 -14 -26 -25 -32 -25 -5 0 -12 -11 -16 -25 -3 -14 -12 -29 -18
-33 -7 -4 -22 -26 -34 -50 -18 -35 -21 -53 -16 -93 4 -27 11 -52 15 -55 5 -3
9 -14 9 -25 0 -11 7 -22 15 -25 8 -4 15 -14 15 -24 0 -16 29 -50 43 -50 3 0 7
15 9 33 3 31 5 32 45 31 36 -1 41 2 31 14 -7 8 -24 12 -45 10 -41 -5 -42 9 -5
44 41 39 65 48 124 48 64 0 134 -31 202 -91 39 -35 47 -38 65 -28 30 20 55 -5
47 -49 -6 -42 -52 -104 -73 -100 -11 2 -19 -8 -25 -32 -11 -42 -95 -125 -149
-146 -35 -15 -38 -19 -54 -89 -15 -64 -16 -83 -5 -137 16 -85 20 -88 39 -32
13 41 27 57 84 100 38 28 73 57 78 65 5 8 9 51 9 96 0 65 3 81 14 77 7 -3 26
5 42 18 16 13 38 28 49 34 12 7 21 24 23 44 2 19 9 39 16 44 20 17 39 91 32
121 -4 15 -2 33 4 40 14 17 3 101 -16 120 -8 7 -14 23 -14 35 0 12 -9 33 -20
47 -11 14 -20 32 -20 39 0 8 -9 14 -19 14 -10 0 -21 7 -25 15 -3 8 -11 15 -18
15 -7 0 -19 9 -26 20 -7 11 -23 20 -36 20 -14 0 -28 5 -31 10 -4 6 -25 10 -48
10 -23 -1 -55 1 -72 3 -16 2 -47 2 -67 0z"/>
<path d="M2099 6099 l-24 -21 25 16 c39 25 87 20 116 -11 13 -16 44 -50 68
-77 37 -43 46 -48 70 -42 15 4 31 17 36 29 9 22 9 22 9 -3 1 -14 -4 -42 -10
-63 -14 -53 -8 -65 31 -59 l32 5 -6 51 c-4 28 -12 70 -18 94 l-10 42 -59 0
c-46 0 -73 7 -119 30 -70 35 -109 38 -141 9z"/>
<path d="M1830 5869 c0 -23 41 -77 77 -102 32 -22 41 -37 57 -92 10 -36 23
-68 28 -71 6 -4 8 2 4 13 -6 20 30 80 42 69 3 -3 12 4 20 15 19 27 71 49 116
49 33 0 61 -25 68 -62 2 -7 10 -19 18 -26 13 -12 13 -13 0 -6 -9 4 -12 3 -7
-2 5 -5 12 -9 15 -10 4 0 29 -11 56 -23 39 -19 53 -21 72 -12 36 16 54 4 54
-37 0 -42 -36 -100 -66 -108 -17 -4 -24 -16 -29 -52 -8 -54 -32 -120 -52 -144
-13 -14 -12 -18 9 -29 27 -15 82 -13 112 3 12 7 27 12 35 13 22 0 51 66 51
115 0 25 -12 72 -25 105 -14 33 -25 79 -25 102 0 41 1 43 50 64 63 27 122 90
118 126 -2 14 -16 35 -31 47 -31 23 -67 24 -427 16 -145 -3 -160 -1 -239 23
-96 31 -101 31 -101 16z"/>
<path d="M4684 5735 c-18 -14 -16 -15 22 -9 24 4 50 1 63 -5 11 -7 21 -8 21
-3 0 11 -45 32 -69 32 -9 0 -26 -7 -37 -15z"/>
<path d="M4941 5704 c-16 -12 -22 -23 -18 -40 2 -14 0 -27 -4 -30 -12 -7 -11
-44 0 -44 14 0 50 49 57 76 3 12 2 30 -3 38 -8 14 -11 14 -32 0z"/>
<path d="M4547 5703 c-10 -9 -9 -25 1 -19 5 3 8 -5 8 -17 -1 -30 28 -29 32 2
4 29 -24 52 -41 34z"/>
<path d="M4697 5703 c-2 -5 -3 -19 -3 -33 1 -36 32 -39 39 -3 3 15 3 31 0 35
-6 10 -31 10 -36 1z"/>
<path d="M4596 5618 c-18 -25 -21 -48 -6 -48 6 0 9 3 8 8 -1 4 4 18 11 30 17
32 7 39 -13 10z"/>
<path d="M2011 5626 c11 -9 69 -15 64 -6 -3 6 -20 10 -37 10 -17 0 -29 -2 -27
-4z"/>
<path d="M2162 5621 c-8 -5 4 -8 31 -7 25 1 40 4 34 8 -16 10 -49 10 -65 -1z"/>
<path d="M2035 5563 c0 -14 6 -28 13 -31 10 -3 13 4 10 24 -4 36 -24 42 -23 7z"/>
<path d="M2170 5559 c0 -20 4 -29 13 -27 16 6 17 58 0 58 -8 0 -13 -12 -13
-31z"/>
<path d="M4633 5533 c9 -2 25 -2 35 0 9 3 1 5 -18 5 -19 0 -27 -2 -17 -5z"/>
<path d="M4590 5513 c0 -6 8 -17 18 -24 16 -13 16 -13 2 6 -8 11 -16 22 -17
24 -2 2 -3 0 -3 -6z"/>
<path d="M4699 5493 c-13 -16 -12 -17 4 -4 9 7 17 15 17 17 0 8 -8 3 -21 -13z"/>
<path d="M2000 5456 c0 -36 -28 -108 -53 -134 l-22 -24 29 -24 c15 -14 41 -28
57 -31 16 -3 26 -10 23 -15 -17 -27 84 -39 106 -13 7 8 18 15 26 15 7 0 17 6
21 14 4 7 19 19 31 25 32 17 22 25 -11 10 -14 -6 -28 -19 -30 -28 -4 -14 -5
-13 -6 2 -1 12 -9 17 -30 17 -24 0 -35 9 -60 47 -17 26 -41 73 -53 105 -11 32
-22 58 -24 58 -2 0 -4 -11 -4 -24z"/>
<path d="M4630 5465 c0 -20 28 -31 43 -16 8 8 5 11 -13 12 l-25 1 25 8 25 8
-27 1 c-19 1 -28 -4 -28 -14z"/>
<path d="M2170 5410 c-9 -6 -10 -10 -3 -10 6 0 15 5 18 10 8 12 4 12 -15 0z"/>
<path d="M2080 5403 c0 -27 70 -47 84 -24 3 4 -7 6 -22 4 -21 -4 -24 -2 -12 6
13 9 13 11 -2 11 -9 0 -23 3 -32 6 -9 3 -16 2 -16 -3z"/>
<path d="M4668 5373 c7 -3 16 -2 19 1 4 3 -2 6 -13 5 -11 0 -14 -3 -6 -6z"/>
<path d="M2325 5359 c-4 -6 -5 -12 -2 -15 2 -3 7 2 10 11 7 17 1 20 -8 4z"/>
<path d="M2291 5331 c-8 -5 -9 -11 -3 -15 5 -3 12 1 16 9 6 17 6 18 -13 6z"/>
<path d="M2910 5286 c0 -8 4 -16 10 -18 5 -1 12 -54 16 -115 l7 -113 56 0 c84
0 101 7 101 40 0 34 9 60 21 60 5 0 9 -12 9 -27 0 -16 5 -35 10 -43 7 -11 10
-1 10 35 0 31 3 45 9 37 5 -9 11 9 15 50 4 34 10 73 13 86 l5 22 -141 0 c-115
0 -141 -3 -141 -14z"/>
<path d="M4982 5228 c-34 -87 -51 -149 -65 -233 l-13 -80 -205 -5 c-112 -3
-206 -4 -208 -3 -4 3 42 212 65 301 4 13 2 22 -5 22 -17 0 -131 -367 -131
-422 l0 -48 -42 6 c-24 4 -53 11 -66 15 -59 22 -105 -7 -137 -85 l-17 -40 -17
23 -17 23 -25 -34 c-38 -50 -39 -53 -16 -54 12 -1 81 -10 152 -20 238 -32 962
-23 1103 15 15 4 29 15 30 25 6 27 -35 64 -78 71 -35 6 -39 10 -49 51 -24 95
-90 109 -190 40 -29 -20 -57 -36 -62 -36 -29 0 16 380 55 475 16 37 13 45 -20
45 -17 0 -26 -11 -42 -52z m-37 -368 c0 -40 -27 -54 -44 -22 -15 29 -3 64 23
60 17 -2 21 -10 21 -38z m-461 14 c11 -29 6 -53 -14 -64 -15 -8 -21 -6 -30 10
-14 27 -2 70 20 70 10 0 21 -7 24 -16z"/>
<path d="M2447 5146 c-19 -42 -63 -203 -72 -267 l-7 -46 -196 -5 c-109 -3
-199 -4 -201 -2 -3 3 53 259 66 304 3 10 -1 9 -11 -4 -15 -18 -63 -156 -107
-306 -18 -62 -21 -91 -16 -170 6 -101 48 -355 72 -430 10 -33 16 -127 20 -350
4 -168 8 -307 11 -309 2 -2 4 -44 4 -93 l0 -89 -77 6 c-73 6 -185 -4 -225 -20
-15 -6 -18 -1 -18 31 0 85 39 153 115 202 11 7 6 6 -11 -2 -43 -20 -91 -78
-103 -123 -6 -21 -10 -76 -9 -123 0 -47 3 -71 5 -55 7 52 11 59 29 44 10 -8
61 -14 155 -17 l139 -5 1 -66 c0 -36 4 -169 8 -296 5 -167 4 -233 -4 -240 -6
-6 -11 -43 -12 -90 0 -129 -35 -245 -73 -245 -10 0 -20 -5 -22 -12 -2 -6 -13
-12 -24 -13 -10 -1 -26 -5 -34 -8 -8 -3 -38 -13 -67 -22 -74 -23 -99 -46 -113
-105 -20 -83 -20 -83 133 -76 72 4 184 6 249 5 140 -1 131 -14 130 183 -2 148
9 232 34 259 8 9 18 42 21 73 5 48 3 56 -11 56 -19 0 -19 -17 -5 245 5 116 16
326 23 467 18 368 27 365 96 -38 49 -293 100 -629 100 -663 0 -11 -8 -22 -18
-26 -16 -4 -19 -15 -17 -68 0 -34 5 -69 9 -76 5 -8 11 -45 14 -82 4 -54 8 -69
21 -70 10 0 12 -2 4 -6 -8 -3 -13 -22 -13 -47 0 -37 -6 -48 -49 -93 -42 -44
-49 -57 -53 -99 -6 -65 4 -89 43 -103 41 -14 132 -13 184 2 29 9 44 21 57 45
9 19 24 42 33 52 16 17 15 23 -7 92 -20 62 -23 91 -21 196 2 92 6 128 18 144
9 14 15 44 15 76 0 45 -3 55 -20 59 -13 4 -20 14 -20 30 0 14 -9 237 -21 497
-17 394 -19 484 -8 553 15 100 7 213 -22 308 -11 39 -31 110 -44 159 -13 49
-28 92 -34 95 -28 18 -51 186 -51 372 0 100 31 310 56 381 19 54 18 58 -9 58
-17 0 -28 -10 -40 -34z m-42 -366 c0 -28 -4 -35 -20 -35 -13 0 -21 8 -23 23
-5 34 5 54 25 50 13 -2 18 -13 18 -38z m-440 10 c9 -30 -4 -60 -26 -60 -15 0
-19 7 -19 33 0 19 3 37 7 40 13 13 32 7 38 -13z m107 -2242 c-7 -7 -12 -8 -12
-2 0 6 3 14 7 17 3 4 9 5 12 2 2 -3 -1 -11 -7 -17z m475 -13 c0 -8 -4 -15 -9
-15 -4 0 -8 7 -8 15 0 8 4 15 8 15 5 0 9 -7 9 -15z m13 -35 c-10 -7 -11 -10
-2 -10 6 0 12 -9 12 -19 0 -11 -6 -22 -12 -24 -10 -4 -9 -8 2 -16 9 -7 10 -11
3 -11 -19 0 -26 20 -11 37 11 13 10 18 -4 26 -15 10 -15 12 0 23 9 7 19 10 22
8 2 -3 -2 -9 -10 -14z m-485 -18 c-6 -7 -34 11 -29 19 3 5 11 3 19 -4 7 -6 12
-13 10 -15z m5 -22 c0 -5 -4 -10 -10 -10 -5 0 -10 5 -10 10 0 6 5 10 10 10 6
0 10 -4 10 -10z m385 -10 c3 -6 -1 -7 -9 -4 -18 7 -21 14 -7 14 6 0 13 -4 16
-10z m-454 -53 c-10 -9 -11 -8 -5 6 3 10 9 15 12 12 3 -3 0 -11 -7 -18z m24
-28 c-4 -5 -12 -9 -18 -8 -9 0 -8 2 1 6 6 2 9 10 6 15 -4 7 -2 8 5 4 6 -4 9
-12 6 -17z m-40 -8 c-3 -6 -11 -11 -17 -11 -6 0 -6 6 2 15 14 17 26 13 15 -4z
m-48 -27 c-3 -3 -12 -4 -19 -1 -8 3 -5 6 6 6 11 1 17 -2 13 -5z m53 -3 c0 -14
-29 -21 -36 -9 -4 7 -3 8 4 4 7 -4 12 -2 12 3 0 6 5 11 10 11 6 0 10 -4 10 -9z
m-180 -21 c0 -5 -7 -10 -16 -10 -8 0 -12 5 -9 10 3 6 10 10 16 10 5 0 9 -4 9
-10z m57 4 c-3 -3 -12 -4 -19 -1 -8 3 -5 6 6 6 11 1 17 -2 13 -5z m653 -34
c-8 -5 -19 -10 -25 -10 -5 0 -3 5 5 10 8 5 20 10 25 10 6 0 3 -5 -5 -10z"/>
<path d="M5538 4720 c-9 -16 -35 -42 -57 -58 l-41 -30 40 -36 c47 -42 49 -42
98 -16 20 10 45 21 55 24 25 8 22 14 -31 83 l-48 61 -16 -28z"/>
<path d="M5388 4565 c-3 -3 -16 -8 -29 -10 -141 -24 -234 -29 -634 -31 -288
-1 -440 -5 -443 -12 -4 -13 126 -26 167 -17 l31 7 0 -71 c0 -56 3 -71 15 -71
8 0 15 7 15 15 0 10 10 15 34 15 19 0 37 6 39 13 5 11 10 -74 10 -145 0 -30
21 -38 31 -12 4 11 17 15 43 13 26 -2 37 1 35 9 -1 7 5 12 13 12 12 0 15 -17
15 -90 0 -75 3 -90 16 -90 8 0 12 5 8 11 -9 15 14 29 49 29 15 0 27 5 27 10 0
6 5 10 10 10 6 0 10 -28 10 -65 0 -37 -4 -65 -10 -65 -5 0 -10 5 -10 10 0 6
-40 10 -99 10 -108 0 -111 2 -111 61 0 28 2 29 44 29 39 0 44 2 39 20 -5 18
-14 20 -104 20 -98 0 -99 0 -99 24 0 44 10 56 46 56 27 0 34 4 34 19 0 22 -32
29 -145 34 l-60 2 -3 43 -3 42 40 0 c35 0 41 3 41 20 0 25 -6 27 -92 33 -71 5
-87 -2 -41 -19 27 -9 27 -10 24 -96 -3 -89 8 -117 33 -83 9 13 22 16 44 13 22
-3 32 0 32 9 0 7 7 13 15 13 15 0 17 -18 18 -157 0 -13 6 -23 13 -23 8 0 13 6
11 13 -1 7 12 13 36 15 20 2 37 8 37 13 0 6 4 8 9 4 5 -3 10 -30 10 -60 0 -30
-5 -55 -10 -55 -5 0 -9 4 -9 9 0 5 -42 9 -92 10 -106 2 -122 10 -112 59 6 28
10 32 40 32 22 0 34 5 34 14 0 15 -49 26 -117 26 -57 0 -93 15 -93 39 0 40 11
51 52 51 32 0 39 3 36 17 -2 13 -23 20 -93 30 -50 7 -98 14 -107 17 -12 3 -18
-2 -18 -14 0 -23 4 -25 53 -34 30 -6 37 -4 37 9 0 9 4 14 9 11 4 -3 12 -46 15
-96 4 -49 12 -90 17 -90 5 0 9 7 9 15 0 10 10 15 34 15 19 0 41 3 50 6 12 5
16 -5 18 -56 l3 -62 70 -5 c39 -2 76 -6 83 -8 9 -3 12 -43 12 -152 0 -81 4
-278 9 -438 23 -705 24 -735 12 -735 -7 0 -11 -27 -11 -75 0 -100 -28 -225
-58 -254 -22 -22 -79 -51 -86 -43 -4 3 -11 0 -15 -7 -5 -8 -22 -15 -38 -16
-45 -4 -119 -40 -137 -67 -9 -14 -17 -36 -18 -51 -1 -15 -6 -27 -10 -27 -4 0
-8 -9 -8 -20 0 -34 42 -43 170 -35 63 4 163 7 222 5 134 -2 144 1 151 48 3 20
8 48 11 62 3 13 1 52 -4 85 -12 73 9 237 34 264 9 10 20 39 25 65 8 42 6 51
-11 68 -22 22 -21 28 17 728 8 146 15 271 15 278 0 6 6 12 14 12 9 0 18 -18
24 -47 32 -147 152 -907 152 -957 0 -8 -9 -18 -20 -21 -17 -5 -20 -15 -20 -69
0 -35 6 -76 15 -92 8 -16 15 -62 16 -102 1 -55 6 -75 18 -82 9 -5 11 -10 5
-10 -6 0 -14 -18 -18 -40 -3 -22 -10 -40 -15 -40 -5 0 -28 -23 -50 -51 -37
-46 -41 -57 -41 -105 0 -50 2 -56 33 -74 40 -25 131 -27 204 -5 41 12 53 21
64 48 7 17 19 38 26 45 19 20 16 74 -8 134 -19 47 -21 68 -17 176 3 73 9 127
16 131 17 10 27 128 12 146 -7 8 -16 13 -20 10 -10 -6 -16 92 -35 560 -20 479
-20 510 -6 580 7 33 11 88 9 122 -4 71 -8 68 84 79 32 3 62 11 67 18 7 8 -11
9 -75 2 -46 -5 -87 -6 -91 -3 -11 12 -5 70 9 78 7 5 25 9 41 9 17 0 27 5 27
15 0 16 -47 15 -173 -1 l-38 -4 3 42 c3 42 4 43 43 48 29 4 41 10 43 24 4 17
-3 18 -102 14 l-106 -4 0 43 c0 42 1 43 40 49 29 5 40 11 40 24 0 16 -9 17
-105 12 l-105 -5 0 27 c0 29 8 30 153 26 35 -1 57 3 57 9 0 6 7 11 15 11 11 0
15 -17 18 -72 2 -52 5 -67 11 -50 6 17 16 22 42 22 18 0 36 5 39 10 3 6 13 10
21 10 13 0 14 -13 8 -85 -6 -76 -5 -85 10 -85 10 0 15 4 11 9 -6 11 26 31 49
31 9 0 26 10 37 21 l22 22 -51 -7 c-58 -8 -67 0 -58 49 6 30 11 34 47 40 30 5
39 11 37 23 -4 18 -7 19 -130 8 l-78 -6 0 25 c0 19 5 25 23 26 46 1 173 17
195 24 18 6 22 4 22 -14 0 -27 16 -27 23 -1 4 14 14 20 35 20 30 0 92 28 92
43 0 8 -5 9 -12 2z m-658 -142 c0 -49 3 -63 15 -63 9 0 12 6 9 15 -5 12 3 15
39 15 27 0 47 5 50 13 3 6 6 -30 6 -80 1 -76 4 -93 16 -93 8 0 15 7 15 15 0
11 11 15 35 15 22 0 38 6 41 15 4 8 12 15 20 15 11 0 14 -21 15 -92 1 -51 4
-83 6 -72 3 16 14 23 41 27 20 3 44 8 52 11 13 5 14 -4 12 -59 -2 -36 -8 -65
-13 -65 -5 0 -9 6 -9 13 0 11 -20 13 -98 9 -107 -5 -115 -1 -105 50 4 21 12
27 45 32 25 4 38 11 35 19 -3 8 -34 12 -103 12 l-99 0 -3 36 c-3 38 10 49 66
49 15 0 22 6 22 20 0 18 -8 20 -107 22 l-108 3 -3 43 -3 42 40 0 c34 0 41 3
41 20 0 18 -7 20 -54 20 -93 0 -144 11 -149 31 -5 20 21 24 161 24 l72 0 0
-62z m-130 -1878 c0 -8 -4 -15 -10 -15 -5 0 -7 7 -4 15 4 8 8 15 10 15 2 0 4
-7 4 -15z m487 -27 c-3 -8 -6 -5 -6 6 -1 11 2 17 5 13 3 -3 4 -12 1 -19z m26
-3 c4 -8 3 -16 -1 -19 -4 -3 -9 4 -9 15 -2 23 3 25 10 4z m-529 -30 c-4 -8
-10 -15 -15 -15 -4 0 -6 7 -3 15 4 8 10 15 15 15 4 0 6 -7 3 -15z m22 -34 c-4
-6 -13 -11 -19 -10 -9 0 -9 2 0 5 7 3 9 13 6 22 -5 13 -3 14 7 5 7 -6 9 -16 6
-22z m507 14 c4 -8 3 -16 -1 -19 -4 -3 -9 4 -9 15 -2 23 3 25 10 4z m-543 -14
c0 -6 -4 -13 -10 -16 -5 -3 -10 1 -10 9 0 9 5 16 10 16 6 0 10 -4 10 -9z m517
-33 c-3 -8 -6 -5 -6 6 -1 11 2 17 5 13 3 -3 4 -12 1 -19z m28 -8 c3 -5 1 -10
-4 -10 -6 0 -11 5 -11 10 0 6 2 10 4 10 3 0 8 -4 11 -10z m-572 -15 c-3 -9 -8
-14 -10 -11 -3 3 -2 9 2 15 9 16 15 13 8 -4z m544 -37 c-3 -8 -6 -5 -6 6 -1
11 2 17 5 13 3 -3 4 -12 1 -19z m-529 0 c-2 -6 -10 -13 -16 -14 -7 -1 -8 0 -2
3 5 2 8 9 4 14 -3 5 0 9 6 9 7 0 10 -5 8 -12z m-43 -17 c-3 -6 -11 -11 -17
-11 -6 0 -6 6 2 15 14 17 26 13 15 -4z m-48 -27 c-3 -3 -12 -4 -19 -1 -8 3 -5
6 6 6 11 1 17 -2 13 -5z m53 -4 c0 -5 -2 -10 -4 -10 -3 0 -8 5 -11 10 -3 6 -1
10 4 10 6 0 11 -4 11 -10z m-180 -25 c7 -9 10 -18 6 -22 -3 -3 -6 -1 -6 5 0 7
-9 12 -21 12 -11 0 -17 5 -14 10 9 14 21 12 35 -5z m57 9 c-3 -3 -12 -4 -19
-1 -8 3 -5 6 6 6 11 1 17 -2 13 -5z m683 -29 c-7 -8 -17 -15 -23 -15 -6 0 -2
7 9 15 25 19 30 19 14 0z"/>
<path d="M4175 4530 c3 -5 22 -10 41 -10 19 0 34 5 34 10 0 6 -18 10 -41 10
-24 0 -38 -4 -34 -10z"/>
<path d="M5499 4523 c-13 -16 -12 -17 4 -4 9 7 17 15 17 17 0 8 -8 3 -21 -13z"/>
<path d="M4015 4480 c10 -11 20 -20 23 -20 3 0 -3 9 -13 20 -10 11 -20 20 -23
20 -3 0 3 -9 13 -20z"/>
<path d="M5310 4471 l-25 -7 33 -17 c17 -10 32 -13 32 -8 0 5 3 16 6 25 7 17
-4 19 -46 7z"/>
<path d="M5250 4436 c0 -19 4 -24 15 -19 18 6 16 34 -2 41 -8 2 -13 -6 -13
-22z"/>
<path d="M5620 4430 c-9 -6 -10 -10 -3 -10 6 0 15 5 18 10 8 12 4 12 -15 0z"/>
<path d="M4260 4420 c0 -5 15 -10 33 -9 27 0 29 2 12 9 -28 12 -45 12 -45 0z"/>
<path d="M5378 4333 c7 -3 16 -2 19 1 4 3 -2 6 -13 5 -11 0 -14 -3 -6 -6z"/>
<path d="M5260 4310 c-8 -5 -12 -11 -9 -14 7 -8 49 5 49 15 0 12 -21 11 -40
-1z"/>
<path d="M5247 4273 c-11 -10 -8 -133 3 -133 6 0 10 9 10 19 0 20 19 31 55 31
12 0 25 7 29 15 4 12 -3 13 -39 8 -42 -5 -45 -4 -46 18 -1 13 -1 30 0 37 2 13
-2 15 -12 5z"/>
<path d="M4110 4211 c0 -14 23 -28 58 -34 25 -5 32 -3 32 9 0 16 -7 19 -57 28
-18 3 -33 2 -33 -3z"/>
<path d="M4153 4087 c4 -12 41 -21 125 -30 65 -7 70 9 5 18 -27 3 -67 10 -91
15 -30 5 -42 4 -39 -3z"/>
<path d="M1954 3596 c23 -18 36 -20 36 -6 0 6 -4 10 -9 10 -5 0 -18 3 -28 6
-16 5 -16 4 1 -10z"/>
<path d="M1313 3213 l-22 -43 44 0 c51 0 54 8 23 54 l-23 32 -22 -43z"/>
</g>
</svg>
