<?xml version="1.0" standalone="no"?>
<!DOCTYPE svg PUBLIC "-//W3C//DTD SVG 20010904//EN"
 "http://www.w3.org/TR/2001/REC-SVG-20010904/DTD/svg10.dtd">
<svg version="1.0" xmlns="http://www.w3.org/2000/svg"
 width="500.000000pt" height="500.000000pt" viewBox="0 0 500.000000 500.000000"
 preserveAspectRatio="xMidYMid meet">

<g transform="translate(0.000000,500.000000) scale(0.100000,-0.100000)"
fill="#000000" stroke="none">
<path d="M2235 3936 c-70 -22 -191 -79 -210 -98 -15 -15 115 -132 183 -165 49
-24 69 -28 142 -28 47 0 93 4 102 8 16 8 18 -1 20 -90 3 -97 3 -98 28 -98 25
0 25 1 28 98 2 89 4 98 20 90 9 -4 58 -8 107 -8 76 0 98 4 140 25 53 27 188
147 182 163 -5 17 -128 76 -215 103 -99 32 -127 27 -212 -38 l-52 -40 -32 30
c-38 36 -107 72 -138 72 -13 -1 -55 -11 -93 -24z"/>
<path d="M3223 3441 c-54 -39 -89 -113 -116 -247 l-22 -108 -135 -123 c-86
-78 -146 -125 -165 -129 -16 -3 -119 -30 -227 -59 -109 -28 -198 -48 -198 -44
0 16 148 79 265 114 145 44 175 67 182 142 13 134 -103 189 -264 127 -188 -72
-251 -82 -394 -59 -166 26 -275 0 -374 -87 -46 -41 -105 -129 -105 -158 0 -22
64 -152 102 -208 76 -112 238 -253 340 -295 34 -14 36 -14 64 13 26 25 58 35
279 84 138 31 282 65 321 75 l71 18 222 223 222 222 16 72 c8 39 22 119 32
178 18 113 15 150 -23 241 -20 45 -39 47 -93 8z"/>
<path d="M2410 3390 c-75 -14 -157 -49 -217 -94 -86 -64 -105 -88 -101 -127 4
-49 40 -63 153 -63 81 0 103 4 226 47 140 48 217 59 273 37 32 -12 106 -78
106 -95 0 -23 41 -65 64 -65 28 0 56 29 56 57 0 53 -112 183 -206 239 -95 56
-249 84 -354 64z"/>
<path d="M828 1150 c3 -39 0 -65 -8 -75 -11 -13 -5 -15 43 -15 41 0 56 4 61
16 10 25 7 29 -7 10 -9 -12 -23 -17 -42 -14 -30 3 -30 3 -30 71 0 41 -4 67
-11 67 -6 0 -9 -22 -6 -60z"/>
<path d="M906 1195 c4 -8 8 -15 10 -15 2 0 4 7 4 15 0 8 -4 15 -10 15 -5 0 -7
-7 -4 -15z"/>
<path d="M1066 1191 c-10 -11 -18 -36 -19 -57 -1 -43 30 -75 72 -73 l26 2 -25
4 c-14 3 -31 10 -37 15 -19 15 -16 88 4 110 9 10 12 18 6 18 -5 0 -18 -9 -27
-19z"/>
<path d="M1140 1206 c0 -2 7 -9 15 -16 9 -7 15 -8 15 -2 0 5 -7 12 -15 16 -8
3 -15 4 -15 2z"/>
<path d="M1237 1199 c-41 -24 -41 -108 -1 -123 11 -4 12 -2 4 14 -18 34 -12
87 12 104 25 18 13 21 -15 5z"/>
<path d="M1318 1194 c16 -11 22 -25 22 -54 0 -45 -20 -70 -58 -71 -19 -1 -21
-3 -9 -6 30 -8 75 17 85 46 15 44 -16 101 -56 101 -4 0 4 -7 16 -16z"/>
<path d="M1408 1144 c3 -48 0 -69 -10 -75 -9 -6 -3 -9 17 -9 20 0 26 3 17 9
-9 5 -12 25 -10 62 l3 54 29 -63 c24 -52 31 -60 39 -47 6 11 6 20 -1 24 -5 3
-20 30 -32 59 -14 32 -29 52 -39 52 -13 0 -15 -10 -13 -66z"/>
<path d="M1522 1165 c-29 -61 -27 -72 3 -15 l24 45 1 -55 c0 -31 -5 -61 -12
-68 -9 -9 -6 -12 15 -12 25 0 27 2 16 22 -7 13 -9 43 -6 75 7 67 -10 71 -41 8z"/>
<path d="M1628 1144 c3 -48 0 -69 -10 -75 -9 -6 -3 -8 17 -8 17 0 24 3 18 6
-9 3 -13 25 -12 61 l1 57 26 -57 c15 -32 29 -58 32 -58 7 0 40 66 40 78 -1 4
-8 -6 -17 -23 l-17 -30 -25 58 c-36 81 -57 78 -53 -9z"/>
<path d="M1750 1191 c-15 -29 -12 -38 5 -15 13 17 14 14 15 -36 0 -31 -5 -61
-12 -68 -9 -9 -6 -12 16 -12 24 0 26 2 16 15 -7 9 -11 37 -8 75 3 62 -10 80
-32 41z"/>
<path d="M1848 1144 c3 -48 0 -69 -10 -75 -8 -5 11 -9 50 -9 58 0 62 2 62 23
-1 20 -2 20 -11 5 -6 -11 -22 -18 -39 -18 -34 0 -39 13 -37 88 1 29 -2 52 -8
52 -6 0 -9 -26 -7 -66z"/>
<path d="M1925 1200 c3 -5 8 -10 11 -10 2 0 4 5 4 10 0 6 -5 10 -11 10 -5 0
-7 -4 -4 -10z"/>
<path d="M1988 1144 c3 -48 0 -69 -10 -75 -8 -6 1 -8 27 -8 22 1 32 3 23 6
-12 3 -18 14 -18 34 0 39 20 37 49 -6 13 -19 31 -35 41 -35 13 0 10 8 -16 36
l-34 36 22 18 c18 15 21 22 12 36 -6 10 -16 20 -23 22 -10 3 -10 0 0 -16 15
-25 -2 -52 -32 -52 -15 0 -19 7 -19 35 0 21 -5 35 -12 35 -10 0 -12 -18 -10
-66z"/>
<path d="M2151 1184 c-12 -15 -21 -38 -21 -51 0 -34 42 -73 77 -72 l28 1 -30
7 c-52 11 -68 79 -28 124 9 9 11 17 5 17 -6 0 -20 -12 -31 -26z"/>
<path d="M2229 1201 c7 -5 17 -15 22 -22 7 -11 9 -9 9 6 0 14 -7 21 -22 22
-16 2 -19 0 -9 -6z"/>
<path d="M2308 1144 c3 -48 0 -69 -10 -75 -8 -5 11 -9 50 -9 52 0 62 3 62 17
0 13 -3 14 -12 5 -7 -7 -25 -12 -40 -12 -28 0 -28 0 -28 70 0 49 -4 70 -12 70
-10 0 -12 -18 -10 -66z"/>
<path d="M2385 1200 c3 -5 8 -10 11 -10 2 0 4 5 4 10 0 6 -5 10 -11 10 -5 0
-7 -4 -4 -10z"/>
<path d="M2525 1190 c-3 -11 -3 -25 0 -31 4 -6 -3 -22 -16 -35 -27 -29 -17
-57 22 -61 l24 -3 -22 10 c-13 5 -23 14 -23 19 0 19 13 41 24 41 15 0 38 -38
31 -50 -3 -6 0 -7 8 -4 8 3 18 1 22 -5 3 -6 16 -11 28 -10 l22 0 -21 9 c-32
13 -69 69 -55 83 14 14 14 57 0 57 -5 0 -7 -5 -4 -10 9 -15 -5 -51 -17 -44 -5
4 -8 17 -5 30 5 29 -9 32 -18 4z"/>
<path d="M2781 1192 c-13 -25 -14 -43 -1 -22 7 12 10 11 16 -5 4 -11 13 -35
21 -54 11 -28 11 -36 1 -43 -8 -5 0 -8 22 -8 21 0 30 3 23 8 -7 5 -25 37 -39
73 -31 77 -30 75 -43 51z"/>
<path d="M2901 1184 c-12 -15 -21 -37 -21 -49 0 -38 37 -75 73 -74 l32 1 -30
7 c-52 11 -68 79 -28 124 9 9 11 17 5 17 -6 0 -20 -12 -31 -26z"/>
<path d="M2979 1201 c7 -5 17 -15 22 -22 7 -11 9 -9 9 6 0 14 -7 21 -22 22
-16 2 -19 0 -9 -6z"/>
<path d="M3078 1150 c3 -39 0 -65 -8 -75 -11 -13 -8 -15 21 -15 28 1 31 2 17
11 -20 11 -24 59 -5 59 6 0 25 -16 40 -35 15 -19 34 -35 41 -35 9 0 2 12 -15
31 -33 35 -35 44 -14 53 20 7 19 52 -1 60 -24 9 -25 8 -12 -13 15 -24 -4 -51
-34 -51 -17 0 -20 5 -16 35 2 21 0 35 -7 35 -8 0 -10 -20 -7 -60z"/>
<path d="M3228 1144 c3 -48 0 -69 -10 -75 -8 -6 -1 -9 22 -9 23 0 30 3 22 9
-10 6 -13 27 -10 75 2 54 0 66 -12 66 -12 0 -14 -12 -12 -66z"/>
<path d="M3316 1188 c-35 -50 -7 -128 47 -128 44 0 67 12 67 33 0 21 0 21 -16
-1 -20 -28 -69 -30 -84 -3 -16 31 -12 79 10 101 15 15 16 20 6 20 -8 0 -22
-10 -30 -22z"/>
<path d="M3407 1190 c9 -11 19 -17 21 -15 6 6 -18 35 -29 35 -5 0 -1 -9 8 -20z"/>
<path d="M3470 1144 c6 -69 16 -84 61 -84 26 0 49 16 49 35 0 5 -5 2 -11 -7
-12 -22 -52 -23 -69 -3 -7 9 -11 36 -8 70 2 44 0 55 -12 55 -13 0 -15 -11 -10
-66z"/>
<path d="M3570 1203 c0 -5 4 -14 9 -21 6 -10 10 -9 14 7 3 14 0 21 -9 21 -8 0
-14 -3 -14 -7z"/>
<path d="M3648 1144 c3 -48 0 -69 -10 -75 -8 -5 11 -9 50 -9 34 0 62 3 62 8 0
4 -18 6 -40 4 -35 -4 -40 -2 -46 23 -3 14 -4 46 -1 71 3 29 1 44 -7 44 -7 0
-10 -22 -8 -66z"/>
<path d="M3830 1141 c0 -46 -4 -71 -12 -74 -7 -3 3 -6 22 -6 23 0 30 2 22 8
-10 6 -13 27 -10 75 2 48 0 66 -9 66 -9 0 -13 -21 -13 -69z"/>
<path d="M3895 1200 c3 -5 8 -10 11 -10 2 0 4 5 4 10 0 6 -5 10 -11 10 -5 0
-7 -4 -4 -10z"/>
<path d="M3950 1144 c6 -69 16 -84 61 -84 26 0 49 16 49 35 0 5 -5 2 -11 -7
-12 -22 -52 -23 -69 -3 -7 9 -11 36 -8 70 2 44 0 55 -12 55 -13 0 -15 -11 -10
-66z"/>
<path d="M4050 1203 c0 -5 4 -14 9 -21 6 -10 10 -9 14 7 3 14 0 21 -9 21 -8 0
-14 -3 -14 -7z"/>
<path d="M4128 1144 c3 -48 0 -69 -10 -75 -9 -6 -2 -9 20 -9 30 0 32 1 18 16
-20 19 -21 54 -2 54 7 0 26 -16 40 -35 23 -30 33 -35 69 -35 26 0 37 3 29 9
-7 4 -23 6 -35 5 -15 -3 -30 6 -46 27 -22 28 -23 32 -8 41 22 12 22 54 1 62
-9 4 -19 4 -22 1 -3 -3 0 -5 7 -5 8 0 11 -11 9 -27 -2 -22 -8 -28 -28 -28 -22
0 -25 4 -25 33 0 17 -4 32 -10 32 -6 0 -9 -26 -7 -66z"/>
<path d="M4317 1190 c-3 -11 -1 -18 4 -15 4 3 11 -7 15 -22 4 -15 11 -34 17
-40 5 -7 7 -22 4 -33 -4 -17 0 -20 26 -20 26 0 29 2 15 13 -8 6 -26 40 -39 75
-25 66 -33 74 -42 42z"/>
<path d="M874 1149 c-3 -6 -1 -16 5 -22 8 -8 11 -5 11 11 0 24 -5 28 -16 11z"/>
<path d="M1894 1149 c-3 -6 -1 -16 5 -22 8 -8 11 -5 11 11 0 24 -5 28 -16 11z"/>
<path d="M2350 1140 c0 -5 5 -10 10 -10 6 0 10 5 10 10 0 6 -4 10 -10 10 -5 0
-10 -4 -10 -10z"/>
<path d="M2610 1139 c0 -5 5 -7 10 -4 6 3 10 8 10 11 0 2 -4 4 -10 4 -5 0 -10
-5 -10 -11z"/>
<path d="M2750 1119 c0 -5 5 -7 10 -4 6 3 10 8 10 11 0 2 -4 4 -10 4 -5 0 -10
-5 -10 -11z"/>
<path d="M4286 1115 c-9 -26 -7 -32 5 -12 6 10 9 21 6 23 -2 3 -7 -2 -11 -11z"/>
<path d="M973 1113 c9 -2 23 -2 30 0 6 3 -1 5 -18 5 -16 0 -22 -2 -12 -5z"/>
<path d="M2995 1096 c0 -15 5 -22 13 -19 6 3 12 14 12 24 0 10 -6 19 -12 19
-7 0 -13 -11 -13 -24z"/>
<path d="M1162 1089 c-8 -12 -9 -18 -4 -15 6 3 13 0 15 -6 3 -7 6 -1 6 15 1
33 0 33 -17 6z"/>
<path d="M2246 1085 c-3 -8 -1 -15 4 -15 6 0 10 7 10 15 0 8 -2 15 -4 15 -2 0
-6 -7 -10 -15z"/>
<path d="M2732 1080 c-11 -17 -10 -20 7 -20 14 0 18 5 14 20 -3 11 -6 20 -7
20 -1 0 -7 -9 -14 -20z"/>
</g>
</svg>
