<?xml version="1.0" standalone="no"?>
<!DOCTYPE svg PUBLIC "-//W3C//DTD SVG 20010904//EN"
 "http://www.w3.org/TR/2001/REC-SVG-20010904/DTD/svg10.dtd">
<svg version="1.0" xmlns="http://www.w3.org/2000/svg"
 width="500.000000pt" height="500.000000pt" viewBox="0 0 500.000000 500.000000"
 preserveAspectRatio="xMidYMid meet">

<g transform="translate(0.000000,500.000000) scale(0.100000,-0.100000)"
fill="#000000" stroke="none">
<path d="M2222 4055 c-76 -26 -153 -62 -187 -89 -19 -15 -18 -17 41 -73 87
-84 169 -125 260 -131 52 -3 80 0 103 11 l30 15 3 -101 c3 -101 3 -102 28
-102 25 0 25 1 28 98 2 89 4 98 20 90 9 -4 55 -8 102 -8 76 0 93 4 150 32 40
20 88 55 125 93 58 60 59 62 40 77 -35 27 -162 83 -228 100 -60 16 -67 16
-109 0 -25 -10 -64 -34 -87 -54 l-42 -36 -32 31 c-43 40 -105 72 -142 72 -16
0 -63 -12 -103 -25z"/>
<path d="M3253 3580 c-76 -34 -123 -125 -154 -299 l-13 -73 -134 -122 c-74
-66 -146 -124 -161 -127 -14 -4 -107 -28 -206 -54 -240 -64 -240 -64 -185 -26
24 17 96 47 160 67 237 74 245 80 245 179 0 57 -3 67 -30 95 -59 62 -113 61
-290 -5 -149 -55 -198 -61 -331 -40 -94 15 -126 16 -181 7 -119 -20 -209 -79
-274 -181 -36 -56 -36 -71 2 -151 83 -177 230 -331 395 -413 l50 -26 26 28
c23 24 50 33 195 65 92 21 237 55 322 76 l153 38 224 223 c123 123 227 232
230 242 3 9 18 90 34 180 l29 162 -25 74 c-36 106 -32 103 -81 81z"/>
<path d="M2391 3510 c-74 -16 -182 -73 -243 -129 -49 -45 -58 -58 -58 -87 0
-50 40 -67 155 -67 82 0 102 4 220 46 185 66 276 64 349 -9 16 -16 35 -44 43
-62 19 -45 54 -60 88 -38 32 21 32 55 -1 107 -64 102 -156 176 -269 218 -68
26 -212 36 -284 21z"/>
<path d="M1069 1903 c-34 -88 -59 -156 -59 -160 0 -2 10 -3 22 -1 17 2 28 19
49 73 29 77 31 77 63 -22 15 -44 22 -53 41 -53 l24 0 -26 68 c-14 37 -30 79
-35 95 -8 21 -16 27 -39 27 -23 0 -32 -6 -40 -27z"/>
<path d="M1440 1919 c-32 -13 -68 -47 -86 -81 -20 -38 -18 -48 10 -48 17 0 31
10 45 34 30 47 75 66 160 66 64 0 71 2 71 20 0 19 -6 20 -87 19 -49 0 -99 -5
-113 -10z"/>
<path d="M1690 1820 l0 -110 58 0 58 0 33 -75 c28 -63 37 -75 57 -75 31 0 30
7 -8 85 l-32 65 32 27 c58 49 53 147 -9 178 -18 10 -58 15 -109 15 l-80 0 0
-110z m170 48 c46 -49 13 -105 -67 -115 l-53 -6 0 72 0 71 50 0 c38 0 54 -5
70 -22z"/>
<path d="M2076 1907 c-61 -35 -80 -67 -84 -147 -4 -60 -1 -75 21 -113 25 -42
44 -56 100 -77 24 -9 27 -7 27 13 0 15 -11 27 -32 37 -50 24 -71 60 -71 123 0
66 28 118 73 137 18 8 30 20 30 31 0 25 -16 24 -64 -4z"/>
<path d="M2200 1912 c0 -11 14 -25 35 -35 44 -21 69 -68 69 -134 0 -61 -22
-100 -72 -123 -21 -10 -32 -22 -32 -37 0 -20 2 -21 33 -11 84 29 122 91 115
191 -4 75 -30 118 -88 147 -48 25 -60 25 -60 2z"/>
<path d="M2410 1910 c0 -19 7 -20 155 -20 148 0 155 1 155 20 0 19 -7 20 -155
20 -148 0 -155 -1 -155 -20z"/>
<path d="M2780 1820 l0 -110 58 0 58 0 33 -75 c28 -63 37 -75 57 -75 31 0 30
7 -8 85 l-32 65 32 27 c58 49 53 147 -9 178 -18 10 -58 15 -109 15 l-80 0 0
-110z m170 48 c46 -49 13 -105 -67 -115 l-53 -6 0 72 0 71 50 0 c38 0 54 -5
70 -22z"/>
<path d="M3216 1921 c-9 -14 -66 -165 -66 -174 0 -5 9 -7 21 -5 16 2 27 19 45
67 28 73 32 79 38 60 40 -111 49 -129 67 -129 25 0 25 0 -13 103 -30 80 -35
87 -60 87 -15 0 -29 -4 -32 -9z"/>
<path d="M3470 1912 c0 -18 8 -20 85 -23 82 -4 86 -5 122 -41 32 -33 37 -44
41 -97 4 -60 4 -62 -36 -101 -38 -38 -43 -40 -101 -40 l-61 0 0 110 0 110 -25
0 -25 0 0 -136 0 -136 93 4 c109 4 150 23 185 84 30 52 28 168 -4 210 -43 59
-68 69 -175 72 -93 4 -99 3 -99 -16z"/>
<path d="M3830 1795 l0 -135 25 0 c23 0 25 4 25 40 l0 40 90 0 c83 0 90 1 90
20 0 19 -7 20 -90 20 l-90 0 0 55 0 55 90 0 c83 0 90 1 90 20 0 19 -7 20 -115
20 l-115 0 0 -135z"/>
<path d="M2540 1700 l0 -140 25 0 25 0 0 140 0 140 -25 0 -25 0 0 -140z"/>
<path d="M1340 1708 c0 -37 42 -100 80 -122 28 -17 52 -21 125 -21 l90 0 3 83
c3 82 3 82 -23 82 -24 0 -25 -2 -25 -60 l0 -60 -56 0 c-34 0 -67 6 -84 16 -29
18 -60 62 -60 88 0 10 -9 16 -25 16 -19 0 -25 -5 -25 -22z"/>
<path d="M972 1648 c-11 -29 -23 -61 -27 -70 -6 -14 -2 -18 18 -18 22 0 28 8
42 50 l17 51 86 -3 86 -3 17 -45 c13 -35 22 -46 42 -48 l25 -3 -26 70 -27 71
-117 0 -117 0 -19 -52z"/>
<path d="M3119 1673 c-17 -43 -39 -105 -39 -109 0 -2 10 -4 23 -4 19 0 27 10
41 50 l18 51 86 -3 86 -3 15 -47 c12 -39 19 -48 38 -48 28 0 28 2 0 75 l-23
60 -117 3 -117 3 -11 -28z"/>
<path d="M1690 1610 c0 -47 2 -50 25 -50 23 0 25 3 25 50 0 47 -2 50 -25 50
-23 0 -25 -3 -25 -50z"/>
<path d="M2780 1610 c0 -47 2 -50 25 -50 23 0 25 3 25 50 0 47 -2 50 -25 50
-23 0 -25 -3 -25 -50z"/>
<path d="M3830 1580 c0 -19 7 -20 115 -20 108 0 115 1 115 20 0 19 -7 20 -115
20 -108 0 -115 -1 -115 -20z"/>
<path d="M828 1156 c2 -30 -1 -63 -7 -75 -11 -20 -10 -21 43 -21 40 0 55 4 60
16 10 25 7 29 -7 10 -9 -12 -23 -17 -42 -14 -30 3 -30 3 -30 71 0 41 -4 67
-11 67 -7 0 -9 -19 -6 -54z"/>
<path d="M896 1203 c5 -5 12 -12 16 -18 4 -6 8 -2 8 8 0 9 -7 17 -17 17 -9 0
-12 -3 -7 -7z"/>
<path d="M1065 1190 c-27 -30 -25 -88 4 -111 13 -11 35 -18 50 -18 l26 2 -25
4 c-34 6 -50 30 -50 74 0 28 6 42 22 53 16 12 18 16 7 16 -9 0 -24 -9 -34 -20z"/>
<path d="M1140 1206 c0 -2 7 -9 15 -16 9 -7 15 -8 15 -2 0 5 -7 12 -15 16 -8
3 -15 4 -15 2z"/>
<path d="M1237 1199 c-46 -27 -41 -105 9 -128 66 -30 125 13 115 84 -2 21 -36
55 -54 55 -6 0 -1 -7 11 -16 27 -18 31 -84 6 -108 -20 -20 -58 -20 -78 0 -25
24 -21 90 6 108 25 18 13 21 -15 5z"/>
<path d="M1408 1144 c3 -48 0 -69 -10 -75 -9 -6 -3 -9 17 -9 20 0 26 3 17 9
-9 5 -12 25 -10 62 l3 54 29 -63 c24 -52 31 -60 39 -47 6 11 6 20 -1 24 -5 3
-20 30 -32 59 -14 32 -29 52 -39 52 -13 0 -15 -10 -13 -66z"/>
<path d="M1522 1165 c-29 -61 -27 -72 3 -15 l24 45 1 -55 c0 -31 -5 -61 -12
-68 -9 -9 -4 -12 23 -11 18 0 28 3 22 6 -9 3 -13 28 -13 74 0 83 -15 91 -48
24z"/>
<path d="M1628 1144 c3 -48 0 -69 -10 -75 -9 -6 -3 -8 17 -8 17 0 24 3 18 6
-9 3 -13 25 -12 61 l1 57 26 -57 c15 -32 29 -58 32 -58 7 0 40 66 40 78 -1 4
-8 -6 -17 -23 l-17 -30 -24 58 c-16 35 -31 57 -41 57 -13 0 -15 -11 -13 -66z"/>
<path d="M1750 1189 c-7 -11 -9 -23 -6 -27 3 -3 6 0 6 6 0 7 5 12 10 12 13 0
13 -76 0 -101 -9 -17 -7 -19 16 -19 22 0 24 2 14 15 -7 9 -11 37 -8 75 3 63
-10 80 -32 39z"/>
<path d="M1848 1150 c3 -38 -1 -66 -8 -75 -11 -13 -4 -15 49 -15 57 0 61 2 61
23 -1 20 -2 20 -11 5 -6 -11 -22 -18 -39 -18 l-30 0 0 70 c0 49 -4 70 -12 70
-9 0 -12 -17 -10 -60z"/>
<path d="M1925 1200 c3 -5 8 -10 11 -10 2 0 4 5 4 10 0 6 -5 10 -11 10 -5 0
-7 -4 -4 -10z"/>
<path d="M1988 1144 c3 -48 0 -69 -10 -75 -8 -6 1 -8 27 -8 22 1 32 3 23 6
-12 3 -18 14 -18 34 0 39 20 37 49 -6 13 -19 31 -35 41 -35 13 0 10 8 -16 36
l-34 36 22 18 c19 15 21 22 12 37 -6 10 -20 20 -30 21 -18 4 -18 3 1 -12 16
-12 18 -18 9 -33 -6 -10 -21 -19 -33 -21 -18 -3 -21 1 -21 32 0 22 -5 36 -12
36 -10 0 -12 -18 -10 -66z"/>
<path d="M2164 1202 c-16 -10 -34 -48 -34 -70 0 -35 38 -72 73 -71 l32 1 -30
7 c-52 11 -68 79 -28 124 16 17 8 23 -13 9z"/>
<path d="M2229 1201 c7 -5 17 -15 22 -22 7 -11 9 -9 9 6 0 14 -7 21 -22 22
-16 2 -19 0 -9 -6z"/>
<path d="M2308 1144 c3 -48 0 -69 -10 -75 -8 -5 11 -9 50 -9 52 0 62 3 62 17
0 13 -3 14 -12 5 -7 -7 -25 -12 -40 -12 -28 0 -28 0 -28 70 0 49 -4 70 -12 70
-10 0 -12 -18 -10 -66z"/>
<path d="M2385 1200 c3 -5 8 -10 11 -10 2 0 4 5 4 10 0 6 -5 10 -11 10 -5 0
-7 -4 -4 -10z"/>
<path d="M2525 1190 c-3 -11 -3 -25 0 -31 4 -6 -3 -22 -16 -35 -27 -29 -17
-57 22 -61 l24 -3 -22 10 c-27 11 -30 32 -8 50 13 11 18 10 30 -6 8 -10 13
-24 10 -31 -2 -7 2 -10 9 -7 8 3 17 1 21 -5 3 -6 16 -11 28 -10 l22 0 -21 9
c-32 13 -69 69 -55 83 6 6 11 21 11 34 0 30 -45 33 -55 3z m45 1 c0 -20 -13
-41 -21 -35 -15 9 -10 44 6 44 8 0 15 -4 15 -9z"/>
<path d="M2781 1192 c-13 -25 -14 -43 -1 -22 7 12 10 11 16 -5 4 -11 13 -35
21 -54 11 -28 11 -36 1 -43 -8 -5 0 -8 22 -8 21 0 30 3 23 8 -7 5 -25 37 -39
73 -31 77 -30 75 -43 51z"/>
<path d="M2914 1202 c-16 -10 -34 -48 -34 -70 0 -35 38 -72 73 -71 l32 1 -30
7 c-52 11 -68 79 -28 124 16 17 8 23 -13 9z"/>
<path d="M2979 1201 c7 -5 17 -15 22 -22 7 -11 9 -9 9 6 0 14 -7 21 -22 22
-16 2 -19 0 -9 -6z"/>
<path d="M3078 1156 c2 -30 -1 -63 -7 -75 -11 -19 -9 -21 21 -21 27 1 30 2 16
11 -21 12 -24 59 -4 59 7 0 24 -16 37 -35 13 -19 31 -35 41 -35 12 0 9 7 -13
31 -33 35 -35 44 -14 53 20 7 19 52 -1 60 -24 9 -25 8 -12 -13 15 -24 -4 -51
-34 -51 -17 0 -20 5 -16 35 2 22 0 35 -7 35 -8 0 -10 -18 -7 -54z"/>
<path d="M3228 1144 c3 -48 0 -69 -10 -75 -8 -6 -1 -9 22 -9 23 0 30 3 22 9
-10 6 -13 27 -10 75 2 54 0 66 -12 66 -12 0 -14 -12 -12 -66z"/>
<path d="M3316 1188 c-22 -32 -20 -84 4 -108 16 -16 31 -20 65 -18 40 3 45 6
45 28 l0 24 -16 -22 c-18 -26 -56 -29 -78 -6 -23 22 -20 80 4 104 15 15 16 20
6 20 -8 0 -22 -10 -30 -22z"/>
<path d="M3407 1190 c9 -11 19 -17 21 -15 6 6 -18 35 -29 35 -5 0 -1 -9 8 -20z"/>
<path d="M3470 1144 c6 -69 16 -84 61 -84 26 0 49 16 49 35 0 5 -5 2 -11 -7
-14 -25 -56 -23 -70 3 -6 12 -9 43 -7 70 2 39 0 49 -12 49 -13 0 -15 -11 -10
-66z"/>
<path d="M3577 1168 c8 -57 10 -58 15 -4 2 30 -1 46 -8 46 -8 0 -10 -14 -7
-42z"/>
<path d="M3648 1150 c3 -38 -1 -66 -8 -75 -11 -13 -4 -15 49 -15 33 0 61 3 61
8 0 4 -18 6 -40 4 l-40 -4 0 71 c0 50 -4 71 -12 71 -9 0 -12 -17 -10 -60z"/>
<path d="M3828 1144 c3 -48 0 -69 -10 -75 -8 -6 -1 -9 22 -9 23 0 30 3 22 9
-10 6 -13 27 -10 75 2 54 0 66 -12 66 -12 0 -14 -12 -12 -66z"/>
<path d="M3895 1200 c3 -5 8 -10 11 -10 2 0 4 5 4 10 0 6 -5 10 -11 10 -5 0
-7 -4 -4 -10z"/>
<path d="M3950 1144 c6 -69 16 -84 61 -84 26 0 49 16 49 35 0 5 -5 2 -11 -7
-14 -25 -56 -23 -70 3 -6 12 -9 43 -7 70 2 39 0 49 -12 49 -13 0 -15 -11 -10
-66z"/>
<path d="M4057 1168 c8 -57 10 -58 15 -4 2 30 -1 46 -8 46 -8 0 -10 -14 -7
-42z"/>
<path d="M4128 1150 c3 -38 -1 -66 -8 -75 -11 -13 -7 -15 21 -14 19 0 28 3 22
6 -15 5 -18 63 -4 63 5 0 21 -16 35 -35 23 -30 33 -35 69 -35 27 0 37 3 28 9
-7 5 -21 7 -30 4 -9 -2 -29 9 -45 26 -28 29 -29 32 -12 44 24 18 18 61 -9 64
-11 2 -14 0 -7 -3 17 -8 15 -51 -4 -58 -29 -11 -34 -6 -34 29 0 21 -5 35 -12
35 -9 0 -12 -17 -10 -60z"/>
<path d="M4317 1190 c-3 -11 -1 -18 4 -15 4 3 11 -7 15 -22 4 -15 11 -34 17
-40 5 -7 7 -22 4 -33 -4 -17 0 -20 26 -20 26 0 29 2 15 13 -8 6 -26 40 -39 75
-25 66 -33 74 -42 42z"/>
<path d="M874 1149 c-3 -6 -1 -16 5 -22 8 -8 11 -5 11 11 0 24 -5 28 -16 11z"/>
<path d="M1894 1149 c-3 -6 -1 -16 5 -22 8 -8 11 -5 11 11 0 24 -5 28 -16 11z"/>
<path d="M2350 1140 c0 -5 5 -10 10 -10 6 0 10 5 10 10 0 6 -4 10 -10 10 -5 0
-10 -4 -10 -10z"/>
<path d="M2610 1139 c0 -5 5 -7 10 -4 6 3 10 8 10 11 0 2 -4 4 -10 4 -5 0 -10
-5 -10 -11z"/>
<path d="M2750 1119 c0 -5 5 -7 10 -4 6 3 10 8 10 11 0 2 -4 4 -10 4 -5 0 -10
-5 -10 -11z"/>
<path d="M4286 1115 c-9 -26 -7 -32 5 -12 6 10 9 21 6 23 -2 3 -7 -2 -11 -11z"/>
<path d="M963 1113 c9 -2 25 -2 35 0 9 3 1 5 -18 5 -19 0 -27 -2 -17 -5z"/>
<path d="M2995 1096 c0 -15 5 -22 13 -19 6 3 12 14 12 24 0 10 -6 19 -12 19
-7 0 -13 -11 -13 -24z"/>
<path d="M1163 1091 c-10 -15 -9 -20 2 -25 11 -4 15 2 15 19 0 30 -2 31 -17 6z"/>
<path d="M2246 1085 c-3 -8 -1 -15 4 -15 6 0 10 7 10 15 0 8 -2 15 -4 15 -2 0
-6 -7 -10 -15z"/>
<path d="M2732 1080 c-11 -17 -10 -20 7 -20 14 0 18 5 14 20 -3 11 -6 20 -7
20 -1 0 -7 -9 -14 -20z"/>
</g>
</svg>
