<?xml version="1.0" encoding="UTF-8"?>
<svg width="1440px" height="1024px" viewBox="0 0 1440 1024" version="1.1" xmlns="http://www.w3.org/2000/svg" xmlns:xlink="http://www.w3.org/1999/xlink">
    <title>FFE5ED2C-7BA0-47A5-9047-2FDE15B4AD7B@3x</title>
    <defs>
        <rect id="path-1" x="0" y="0" width="1920" height="1024"></rect>
        <polygon id="path-3" points="0.598021 0.165595676 35.4027543 0.165595676 35.4027543 29.3892945 0.598021 29.3892945"></polygon>
        <rect id="path-5" x="0" y="0" width="1920" height="1024"></rect>
        <polygon id="path-7" points="0.00820033275 0.239199143 25.5165194 0.239199143 25.5165194 27.9347873 0.00820033275 27.9347873"></polygon>
        <polygon id="path-9" points="0 0.699875903 96.5273262 0.699875903 96.5273262 211.662131 0 211.662131"></polygon>
        <polygon id="path-11" points="0 0.458949385 61.6978786 0.458949385 61.6978786 138.799185 0 138.799185"></polygon>
    </defs>
    <g id="Udropship-vendor-image" stroke="none" stroke-width="1" fill="none" fill-rule="evenodd">
        <g id="Ilustra" transform="translate(-480.000000, 0.000000)">
            <g id="Terreno">
                <mask id="mask-2" fill="white">
                    <use xlink:href="#path-1"></use>
                </mask>
                <ellipse id="Oval-2" fill="#38DC6A" mask="url(#mask-2)" cx="463.145833" cy="1686.7384" rx="814.395833" ry="814.50211"></ellipse>
                <ellipse id="Oval" fill="#38DC6A" mask="url(#mask-2)" cx="897.625" cy="1525.05063" rx="814.395833" ry="814.50211"></ellipse>
            </g>
            <path d="M1133.26513,296.003858 C1133.26513,320.859428 1113.05832,341.007717 1088.13282,341.007717 C1063.2063,341.007717 1043.00051,320.859428 1043.00051,296.003858 C1043.00051,271.148289 1063.2063,251 1088.13282,251 C1113.05832,251 1133.26513,271.148289 1133.26513,296.003858" id="Fill-1" fill="#FCFC30"></path>
            <path d="M1115.72197,316.449539 L1144.48287,316.449539 C1148.11613,306.610709 1157.599,299.592618 1168.7272,299.592618 L1174.30393,299.592618 C1190.19125,299.592618 1203.07089,312.435603 1203.07089,328.277703 C1203.07089,330.897897 1202.67573,333.425377 1201.94604,335.807739 L1209.19438,335.807739 C1221.06843,335.807739 1230.6938,345.405713 1230.6938,357.24597 C1230.6938,369.086226 1221.06843,378.684201 1209.19438,378.684201 L1115.72197,378.684201 C1098.48747,378.684201 1084.51633,364.752827 1084.51633,347.566366 C1084.51633,330.380913 1098.48747,316.449539 1115.72197,316.449539" id="Fill-4" fill="#FFFFFF"></path>
            <path d="M731.02659,311.603341 L700.500723,311.603341 C696.644653,301.323766 686.579624,293.992135 674.768642,293.992135 L665.730347,293.992135 C650.590318,293.992135 638.318064,306.039085 638.318064,320.899936 L638.318064,323.961071 C638.318064,326.699511 638.73685,329.339653 639.510694,331.828873 L631.817775,331.828873 C619.215751,331.828873 609,341.856249 609,354.226887 C609,366.596532 619.215751,376.623908 631.817775,376.623908 L667.341763,376.623908 C668.749855,376.623908 670.119509,376.463057 671.436561,376.168163 C673.229046,376.463057 675.067052,376.623908 676.944509,376.623908 L731.02659,376.623908 C749.318642,376.623908 764.148121,362.068873 764.148121,344.114121 C764.148121,326.158376 749.318642,311.603341 731.02659,311.603341" id="Fill-1" fill="#FFFFFF"></path>
            <path d="M939.348431,396.490384 L921.236914,396.490384 C918.949042,390.561428 912.977289,386.332759 905.969632,386.332759 L900.607058,386.332759 C891.624221,386.332759 884.342883,393.281086 884.342883,401.852387 L884.342883,403.617959 C884.342883,405.197411 884.591356,406.720167 885.050491,408.155876 L880.486151,408.155876 C873.009156,408.155876 866.947977,413.939371 866.947977,421.074391 C866.947977,428.208838 873.009156,433.992334 880.486151,433.992334 L901.563139,433.992334 C902.398584,433.992334 903.211222,433.899559 903.992652,433.729473 C905.056164,433.899559 906.146684,433.992334 907.260611,433.992334 L939.348431,433.992334 C950.201417,433.992334 959,425.597418 959,415.241645 C959,404.8853 950.201417,396.490384 939.348431,396.490384" id="Fill-1-Copy" fill="#FFFFFF" transform="translate(912.973988, 410.162546) scale(-1, 1) translate(-912.973988, -410.162546) "></path>
            <g id="Casa" transform="translate(918.579744, 658.153414) rotate(-4.000000) translate(-918.579744, -658.153414) translate(851.579744, 584.653414)">
                <polygon id="Fill-1" fill="#282313" points="76.652334 138.706876 21.625514 133.815745 30.283234 36.4646726 85.311064 41.3558035"></polygon>
                <polygon id="Fill-2" fill="#FFFFFF" points="40.316877 139.750331 113.386337 146.244912 118.432297 89.5011306 45.363847 83.006549"></polygon>
                <polygon id="Fill-3" fill="#FFFFFF" points="28.811664 91.9151924 133.152744 101.18956 85.886764 41.4075016"></polygon>
                <polygon id="Fill-4" fill="#FFFFFF" points="0 136.166194 33.77945 139.16913 43.25022 32.6759648 9.47077 29.6730285"></polygon>
                <g id="Group-16" transform="translate(9.090000, 0.844134)">
                    <g id="Group-7" transform="translate(0.000000, -0.000000)">
                        <mask id="mask-4" fill="white">
                            <use xlink:href="#path-3"></use>
                        </mask>
                        <g id="Clip-6"></g>
                        <path d="M34.377471,29.3892945 L0.598021,26.3863583 L1.556511,15.616581 C2.385721,6.29172692 10.620251,-0.596649297 19.947601,0.233348541 C29.274951,1.06233665 36.165171,9.29365341 35.334951,18.6185075 L34.377471,29.3892945 Z" id="Fill-5" fill="#FFFFFF" mask="url(#mask-4)"></path>
                    </g>
                    <path d="M82.286215,80.7189053 C81.844845,85.6827366 77.462455,89.3480556 72.497295,88.9068037 C67.532135,88.4655518 63.865835,84.0843345 64.307205,79.1205031 C64.748575,74.1566718 69.130965,70.4913529 74.096125,70.9326048 C79.060275,71.3738566 82.727585,75.7550739 82.286215,80.7189053" id="Fill-8" fill="#FCFC30"></path>
                    <polygon id="Fill-10" fill="#465EFF" points="83.529929 143.555295 53.383449 140.875472 56.483139 106.015563 86.630629 108.696396"></polygon>
                    <line x1="55.357494" y1="104.269034" x2="83.530434" y2="143.555598" id="Stroke-12" stroke="#FFFFFF" stroke-width="2.582"></line>
                    <line x1="88.410047" y1="107.207044" x2="53.383247" y2="140.875472" id="Stroke-14" stroke="#FFFFFF" stroke-width="2.582"></line>
                </g>
            </g>
            <g id="Solo">
                <mask id="mask-6" fill="white">
                    <use xlink:href="#path-5"></use>
                </mask>
                <path d="M1384.4172,979.279092 C1255.73391,982.475069 664.305311,989.338088 555.696857,983.873876 C447.090762,978.409665 213.53975,977.70761 -122.502393,975.088727 C-458.542176,972.469844 -399.804541,1028.69631 -122.219184,1028.5456 C155.368534,1028.39414 429.564819,1048.41064 697.801906,1051.39002 C966.038992,1054.36864 1298.02416,1028.73342 1567.31384,1029.18707 C1850.59879,1029.66495 2541.58258,1016.70307 2161.56982,986.943377 C1997.66708,974.108728 1513.10048,976.083115 1384.4172,979.279092 Z" id="Fill-5" fill="#877373" mask="url(#mask-6)"></path>
                <path d="M766.72356,983.361979 C766.72356,983.361979 769.683008,968.379623 752.852382,968.710087 C736.020828,969.041016 746.454732,965.127104 736.437997,963.049021 C726.420797,960.970939 720.049498,974.170662 709.394719,972.987955 C698.740405,971.805248 683.777686,980.535854 681.561015,990.105059 C679.344809,999.674728 766.72356,983.361979 766.72356,983.361979" id="Fill-77" fill="#877373" mask="url(#mask-6)" transform="translate(724.221725, 977.970554) rotate(5.000000) translate(-724.221725, -977.970554) "></path>
            </g>
            <g id="Trator" transform="translate(733.000000, 737.000000)">
                <path d="M171.633835,104.896098 L171.464567,104.8546 C170.880245,104.712386 170.521304,104.121149 170.662747,103.533176 L177.206693,76.3889691 C177.348136,75.8019288 177.936632,75.4405655 178.520955,75.5832457 L178.690223,75.6247442 C179.274545,75.7664918 179.633022,76.358195 179.491579,76.9461679 L172.948097,104.090375 C172.80619,104.677881 172.217694,105.038778 171.633835,104.896098" id="Fill-8" fill="#282313"></path>
                <polygon id="Fill-10" fill="#282313" points="175.078879 91.2302269 175.632594 88.9328893 204.74622 96.0277317 204.192041 98.3255356"></polygon>
                <path d="M177.510402,96.6679741 C177.510402,96.6679741 176.447955,96.9300207 175.928558,96.8157833 C175.928558,96.8157833 174.997816,96.5369508 174.324454,96.377951 C174.110666,96.3285258 173.923312,96.289825 173.799955,96.2786344 C173.28334,96.2278104 172.134173,96.271174 170.928428,95.7993035 C169.723148,95.3278994 165.043932,91.9492698 165.043932,91.9492698 L166.142087,88.8877072 L166.763509,85.8751036 C166.763509,85.8751036 174.570704,84.518243 175.74445,84.8269171 C175.858532,84.8581575 175.971223,84.8921956 176.073711,84.9332278 C177.042016,85.2917934 177.613354,85.9674261 178.100289,86.2136193 C178.278368,86.304543 179.990525,87.3345448 180.080492,87.9271805 C180.207095,88.7492235 179.9627,89.370302 179.542545,89.7526476 C179.542545,89.7526476 179.719696,91.3738862 179.123317,92.2929145 C179.123317,92.2929145 179.334322,93.7831299 178.269093,94.7147476 C178.269093,94.7147476 178.314077,96.2501916 177.510402,96.6679741" id="Fill-12" fill="#FCFC30"></path>
                <path d="M118.532435,176.718415 L116.851349,180.392197 C116.851349,180.392197 109.740239,177.740024 109.704994,177.650966 C109.669286,177.562373 111.652735,172.549916 111.652735,172.549916 L118.532435,176.718415 Z" id="Fill-14" fill="#515269"></path>
                <path d="M179.395258,176.535356 L181.371288,182.309241 C181.371288,182.309241 173.575223,184.048913 172.442287,183.960321 C172.342117,183.951928 170.956903,177.418947 170.956903,177.418947 L179.395258,176.535356 Z" id="Fill-16" fill="#6A6B8A"></path>
                <path d="M171.567241,182.277721 C171.567241,182.277721 177.014423,180.779579 177.176271,180.541778 C177.337656,180.304444 179.334554,178.94432 180.365465,179.115443 C181.395913,179.287498 181.491445,180.526391 182.521429,180.77818 C183.550949,181.029502 191.519528,183.576763 192.624176,184.228616 C193.728823,184.880468 198.99468,182.945427 200.011215,184.314877 C201.02775,185.685259 202.01878,189.290499 193.742272,190.551773 C185.466228,191.812581 176.610035,195.542316 174.627977,195.039671 C172.644991,194.537493 171.268124,184.497656 171.567241,182.277721" id="Fill-18" fill="#202338"></path>
                <path d="M109.143349,176.672441 C109.143349,176.672441 114.197737,178.831761 114.463929,178.748298 C114.729656,178.664368 117.069264,178.837822 117.752364,179.593654 C118.435929,180.349486 117.766277,181.352444 118.401148,182.168892 C119.035555,182.98534 122.644904,187.771188 123.700858,188.875793 C124.563893,189.778036 129.293193,190.615466 130.812431,192.20593 C131.956961,193.405656 130.621367,198.208756 122.575806,195.928205 C114.740322,193.707336 105.036862,189.851241 103.825089,188.265906 C102.61378,186.68057 107.584693,178.184571 109.143349,176.672441" id="Fill-20" fill="#202338"></path>
                <path d="M114.201586,104.651584 C114.201586,104.651584 136.434586,114.546408 141.147191,117.933431 C145.861188,121.32092 156.179578,127.558282 156.52507,129.088597 C156.870562,130.618912 158.90827,129.123101 155.265994,136.776541 C151.623255,144.429049 134.370908,162.861371 132.753819,164.864955 C131.067168,166.953868 119.100155,179.472423 119.100155,179.472423 L110.071912,172.659677 C110.071912,172.659677 127.365533,146.996826 129.867452,143.224194 C132.370299,139.451096 133.499525,138.891099 132.01275,137.228828 C130.526438,135.567024 124.599741,135.602461 94.0665824,122.946355 C91.0155854,121.681817 82.5034937,118.755008 81.3756589,114.640596 C79.3370234,107.206305 81.0575279,97.7758904 89.2519523,93.6157837 C97.4463767,89.455677 114.201586,104.651584 114.201586,104.651584" id="Fill-22" fill="#292C47"></path>
                <path d="M124.64542,32.7286443 C124.450646,32.9016323 124.239177,33.2811803 124.018896,33.8029422 C123.700765,34.5508475 123.365012,35.5925061 123.040388,36.7404755 C122.039621,40.2855653 121.132066,44.8331467 121.132066,44.8331467 C121.132066,44.8331467 108.398941,34.2030062 110.195037,33.5306375 C111.991596,32.8578025 113.315132,29.7435509 113.315132,29.7435509 C113.315132,29.7435509 125.983332,31.5307834 124.64542,32.7286443" id="Fill-24" fill="#FCFC30"></path>
                <path d="M113.846077,100.632665 C113.846077,100.632665 136.807161,106.023272 142.484362,107.836616 C148.16249,109.649493 157.93273,112.843012 160.559398,114.343951 C161.954815,115.141748 164.085273,116.334946 166.647479,124.670081 C169.55286,134.11868 176.193265,160.693565 177.697663,164.831757 C178.642317,167.430308 181.36359,177.656654 181.36359,177.656654 L169.638653,179.721787 C169.638653,179.721787 155.623266,151.472042 154.477345,143.937035 C152.549545,131.254352 147.658396,131.195601 145.680048,130.042503 C143.702627,128.890337 134.191623,131.076235 100.334784,128.418933 C96.9512795,128.15269 87.7027562,127.999751 85.3028611,124.334363 C80.9668188,117.709992 76.5885754,110.184777 83.294833,103.505852 C90.0006268,96.8269273 113.846077,100.632665 113.846077,100.632665" id="Fill-26" fill="#292C47"></path>
                <path d="M129.082698,6.01527561 C129.082698,6.01527561 133.066756,12.9063558 132.164766,14.7854446 C131.263241,16.6645334 136.324585,21.2041881 135.496331,22.1693776 C134.668541,23.1341009 132.961021,24.3044514 132.990238,24.5842165 C133.019454,24.8649141 131.536852,33.8574964 129.588183,34.0612586 C127.639051,34.2659534 114.311402,33.5935846 113.198871,29.4045688 C112.08634,25.215553 108.821091,16.040191 108.052197,14.3364216 C107.283303,12.632186 114.943954,-0.548013164 129.082698,6.01527561" id="Fill-28" fill="#FCFC30"></path>
                <g id="Group-32" transform="translate(104.831468, 0.000000)">
                    <mask id="mask-8" fill="white">
                        <use xlink:href="#path-7"></use>
                    </mask>
                    <g id="Clip-31"></g>
                    <path d="M7.81990166,4.71068442 C6.71108056,5.54018788 5.81697472,6.41865023 5.10187554,7.31576358 C4.2281746,7.73028218 -0.921281469,10.3129801 0.155541027,13.0933788 C1.6033618,16.8329053 7.44751214,26.8512928 7.9404761,27.8980805 C8.00586455,28.0374968 8.00586455,27.7735851 7.95670727,27.2117235 C8.31008313,23.6708302 12.6368505,19.6953684 12.6368505,19.6953684 L14.947706,18.6411203 C13.7368604,16.3890114 14.210347,14.2791164 14.210347,14.2791164 C16.8235661,11.4539554 25.5165194,8.40031954 25.5165194,8.40031954 C24.255589,-4.07627047 13.6422559,0.351478195 7.81990166,4.71068442" id="Fill-30" fill="#282313" mask="url(#mask-8)"></path>
                </g>
                <path d="M117.126259,17.5000518 C116.471447,16.4989591 113.0258,16.6696158 113.53314,19.623935 C114.040944,22.5787205 118.272643,24.9422692 119.1904,23.6227106 C120.109085,22.3040845 117.824199,18.5668893 117.126259,17.5000518" id="Fill-33" fill="#FCFC30"></path>
                <path d="M110.194944,33.5309639 C110.194944,33.5309639 94.1042851,42.994484 90.4981819,59.4773099 C86.8920786,75.9610685 80.3690015,104.906496 80.2586295,108.333152 C80.2586295,108.333152 102.035301,97.7501054 113.846031,100.632618 C113.846031,100.632618 121.233534,73.7700416 125.132726,67.4212394 C129.031918,61.0719709 123.195187,46.1744804 123.195187,46.1744804 C123.195187,46.1744804 117.624648,37.2383175 110.194944,33.5309639" id="Fill-35" fill="#465EFF"></path>
                <path d="M124.019082,33.8028023 C123.700487,34.5507076 123.365197,35.5923663 123.040574,36.7403356 C121.135498,35.9481342 117.499715,32.5867567 117.387951,32.4818448 C118.904407,33.0698178 124.019082,33.8028023 124.019082,33.8028023" id="Fill-37" fill="#FCFC30"></path>
                <path d="M117.284304,46.2788328 C117.284304,46.2788328 121.127846,51.7365832 123.505945,55.8705785 C126.201711,60.5571099 128.85203,65.1844243 129.436816,66.2246841 C130.626329,68.341107 134.847826,69.4662289 136.716266,70.2682221 C138.434452,71.0068019 166.881672,84.8285957 167.244787,84.7950239 C167.608829,84.7619183 165.561382,93.289158 165.561382,93.289158 C165.561382,93.289158 124.619867,80.6750168 122.832119,79.0374585 C121.043908,77.3999003 115.73214,69.9422958 113.558554,66.8695427 C111.488847,63.9436662 108.313565,59.1428974 106.629697,57.0745009 C104.748272,54.7617763 100.794822,46.8462896 105.797733,42.8866812 C112.18957,37.8266634 115.740023,43.9628442 117.284304,46.2788328" id="Fill-39" fill="#465EFF"></path>
                <path d="M106.415677,56.7982795 C106.415677,56.7982795 111.030432,69.3173006 113.800862,73.5832518 C116.570828,77.8487367 119.625535,81.3942928 119.625535,81.3942928 L121.089123,77.069591 C121.089123,77.069591 109.171267,60.647847 106.415677,56.7982795" id="Fill-41" fill="#465EFF"></path>
                <polygon id="Fill-43" fill="#282313" points="316.148794 201.101341 146.76443 201.389965 146.759328 198.504188 316.143693 198.214632"></polygon>
                <polygon id="Fill-45" fill="#282313" points="372.277726 192.987035 331.766105 193.056043 331.732252 173.171274 372.244336 173.102265"></polygon>
                <polygon id="Fill-47" fill="#282313" points="348.645553 176.99072 297.287798 177.07838 297.261828 162.004171 348.619583 161.916978"></polygon>
                <path d="M189.394358,133.322935 L193.702111,133.315474 L222.487868,178.810405 L297.290395,178.681713 L297.262106,162.004451 C297.262106,162.004451 283.480448,123.540482 189.394358,133.322935" id="Fill-49" fill="#515151"></path>
                <polygon id="Fill-51" fill="#282313" points="44.6787818 7.75606719 55.8430474 7.73741619 95.5797453 128.995062 83.80055 129.015112"></polygon>
                <polygon id="Fill-53" fill="#545454" points="138.363081 165.48319 52.920323 165.628667 52.8414859 119.146166 138.284244 119.000688"></polygon>
                <polygon id="Fill-55" fill="#282313" points="241.021643 198.342811 158.561711 198.484092 158.536669 183.409417 240.996137 183.268602"></polygon>
                <polygon id="Fill-57" fill="#616161" points="216.257322 173.367949 229.697199 198.362161 302.108642 198.238598 318.334716 173.194028"></polygon>
                <path d="M292.358158,162.012517 L355.637479,161.904808 L355.624494,154.207072 L353.276539,151.645356 C353.276539,151.645356 358.224728,107.69706 327.087307,107.749749 C295.949422,107.802904 241.040749,107.896159 239.366156,107.899423 C237.692026,107.902687 217.923847,99.276597 214.57095,96.3954829 C211.217589,93.5148351 208.748596,88.794732 197.504565,101.877013 C194.491596,105.38247 188.813003,109.910001 184.794164,109.275401 C180.775326,108.641267 167.382288,108.343317 166.71681,110.910162 C166.051795,113.477006 176.128572,132.704328 181.151889,133.336597 C186.174742,133.969332 276.564298,128.042042 292.358158,162.012517" id="Fill-59" fill="#616161"></path>
                <path d="M365.129996,210.318435 C365.169352,233.700267 346.349537,252.687457 323.094438,252.726688 C299.839339,252.766724 280.955526,233.844346 280.916046,210.462514 C280.876689,187.080681 299.69604,168.093957 322.951604,168.053797 C346.206239,168.014691 365.090515,186.937068 365.129996,210.318435" id="Fill-61" fill="#282313"></path>
                <path d="M352.051268,210.341235 C352.078586,226.460367 339.104312,239.550109 323.072549,239.577196 C307.040322,239.604663 294.021993,226.559217 293.995051,210.440552 C293.967271,194.321421 306.942008,181.231679 322.973771,181.20459 C339.005534,181.176658 352.023863,194.222104 352.051268,210.341235" id="Fill-63" fill="#EDEDED"></path>
                <path d="M159.499043,186.614919 C159.561088,223.282329 130.047711,253.056327 93.5795081,253.119372 C57.1122325,253.181289 27.4982227,223.507073 27.4364462,186.840596 C27.374402,150.174118 56.8873148,120.399187 93.3555179,120.336144 C129.823721,120.274691 159.437267,149.948441 159.499043,186.614919" id="Fill-65" fill="#282313"></path>
                <path d="M138.398949,186.651335 C138.441083,211.600784 118.358483,231.861372 93.5437995,231.903869 C68.7295798,231.946234 48.5788084,211.754655 48.5370047,186.804273 C48.4948701,161.854357 68.576543,141.594236 93.3912264,141.55174 C118.206374,141.50984 138.356681,161.700952 138.398949,186.651335" id="Fill-67" fill="#EDEDED"></path>
                <polygon id="Fill-69" fill="#515151" points="161.266057 141.436309 138.875383 118.999615 50.5379112 119.150222 27.9162913 141.972525 24.1005741 141.979053 49.7527861 116.098918 141.126415 115.942716 167.103251 141.972525"></polygon>
                <polygon id="Fill-71" fill="#282313" points="68.4671449 116.067118 52.8365238 116.093696 52.7669616 74.8623844 68.3975827 74.8353404"></polygon>
                <path d="M128.756498,116.007994 C128.531117,103.915615 127.434817,89.6541237 126.026414,86.6900126 C120.631636,85.1918706 83.9732961,86.1579927 58.9661573,87.3577186 L58.7231534,82.2310235 C58.8877839,82.2235631 75.4125109,81.4350919 92.0958396,81.0298988 C126.877855,80.1831432 128.421672,81.7302441 129.547652,82.8595624 C130.44825,83.7618048 132.123771,85.4403953 133.211724,101.282093 C133.721382,108.700997 133.858652,115.840135 133.860043,115.911475 L128.756498,116.007994 Z" id="Fill-73" fill="#282313"></path>
                <polygon id="Fill-75" fill="#282313" points="251.662476 172.795266 244.963639 172.806923 244.756807 50.6088002 251.456109 50.5976096"></polygon>
                <polygon id="Fill-2" fill="#282313" points="2.28644031 203.40239 0 196.854432 43.0784246 182.151394 45.3648649 188.699352"></polygon>
            </g>
            <g id="Arvore" transform="translate(543.000000, 592.000000)">
                <g id="Group-3">
                    <mask id="mask-10" fill="white">
                        <use xlink:href="#path-9"></use>
                    </mask>
                    <g id="Clip-2"></g>
                    <path d="M62.9666576,0.699646435 C80.1946336,0.699646435 106.289962,17.0996893 92.7844576,179.658297 C91.2619456,197.987397 68.9302176,211.662131 52.3649456,211.662131 C35.7996736,211.662131 1.1225616,205.355599 1.1225616,173.998099 C1.1225616,151.573769 11.2827296,149.396887 11.2827296,136.551296 C11.2827296,127.960797 -0.0003104,118.135763 -0.0003104,97.6902083 C-0.0003104,66.0129835 36.5500656,69.7028211 36.5500656,37.9032137 C36.5500656,6.10284138 49.0514256,0.699646435 62.9666576,0.699646435" id="Fill-1" fill="#FCFC30" mask="url(#mask-10)"></path>
                </g>
                <line x1="55.6473684" y1="70.625" x2="55.6473684" y2="226" id="Stroke-4" stroke="#282313" stroke-width="3.313" stroke-linecap="round"></line>
                <line x1="78.6210526" y1="97.8660714" x2="55.1368421" y2="117.035714" id="Stroke-6" stroke="#282313" stroke-width="3.313" stroke-linecap="round"></line>
                <line x1="26.5473684" y1="147.303571" x2="56.1578947" y2="172.526786" id="Stroke-8" stroke="#282313" stroke-width="3.313" stroke-linecap="round"></line>
            </g>
            <g id="Arvore" transform="translate(1173.000000, 661.000000)">
                <g id="Group-3">
                    <mask id="mask-12" fill="white">
                        <use xlink:href="#path-11"></use>
                    </mask>
                    <g id="Clip-2"></g>
                    <path d="M40.2467296,0.45879891 C51.2584256,0.45879891 67.9379136,11.213262 59.3055296,117.812407 C58.3323776,129.831865 44.0584896,138.799185 33.4703776,138.799185 C22.8822656,138.799185 0.7175136,134.663624 0.7175136,114.100686 C0.7175136,99.3957467 7.2116416,97.9682385 7.2116416,89.5446364 C7.2116416,83.9113462 -0.0001984,77.4684993 -0.0001984,64.0611583 C-0.0001984,43.2885574 23.3618976,45.7081987 23.3618976,24.8553444 C23.3618976,4.00198848 31.3524576,0.45879891 40.2467296,0.45879891" id="Fill-1" fill="#FCFC30" mask="url(#mask-12)"></path>
                </g>
                <line x1="36" y1="46.3129252" x2="36" y2="148" id="Stroke-4" stroke="#282313" stroke-width="3.313" stroke-linecap="round"></line>
                <line x1="50" y1="64.4353741" x2="35" y2="76.5170068" id="Stroke-6" stroke="#282313" stroke-width="3.313" stroke-linecap="round"></line>
                <line x1="17" y1="96.6530612" x2="36" y2="112.761905" id="Stroke-8" stroke="#282313" stroke-width="3.313" stroke-linecap="round"></line>
            </g>
        </g>
    </g>
</svg>
