<?xml version="1.0" standalone="no"?>
<!DOCTYPE svg PUBLIC "-//W3C//DTD SVG 20010904//EN"
 "http://www.w3.org/TR/2001/REC-SVG-20010904/DTD/svg10.dtd">
<svg version="1.0" xmlns="http://www.w3.org/2000/svg"
 width="996.000000pt" height="664.000000pt" viewBox="0 0 996.000000 664.000000"
 preserveAspectRatio="xMidYMid meet">

<g transform="translate(0.000000,664.000000) scale(0.100000,-0.100000)"
fill="#000000" stroke="none">
<path d="M8890 1968 c51 -44 164 -95 252 -112 94 -19 131 -20 126 -4 -3 7 -40
17 -84 24 -91 13 -198 51 -265 94 -59 39 -74 38 -29 -2z"/>
<path d="M8470 1934 c0 -8 5 -12 10 -9 6 3 10 10 10 16 0 5 -4 9 -10 9 -5 0
-10 -7 -10 -16z"/>
<path d="M8504 1869 c-3 -5 3 -9 14 -9 11 0 31 -9 46 -21 29 -23 37 -11 9 13
-23 19 -61 29 -69 17z"/>
<path d="M8640 1795 c11 -47 -3 -102 -49 -193 -48 -96 -55 -129 -41 -183 13
-46 24 -63 95 -141 60 -66 64 -88 31 -155 -14 -29 -26 -62 -26 -72 0 -78 177
-139 377 -129 105 5 166 33 238 109 55 58 65 83 65 160 0 57 2 62 44 107 73
79 83 118 45 178 -16 26 -27 34 -50 34 -131 0 -416 116 -637 260 -51 33 -95
60 -97 60 -1 0 1 -16 5 -35z"/>
<path d="M8521 1777 c-12 -12 -15 -40 -5 -50 11 -11 44 13 44 32 0 23 -23 34
-39 18z"/>
<path d="M8255 1234 c-105 -53 -196 -100 -202 -106 -19 -16 -16 -59 8 -103 12
-22 66 -123 119 -225 113 -216 132 -250 143 -250 24 0 -6 76 -113 290 -66 132
-120 243 -120 247 0 6 306 167 362 191 4 2 28 -38 53 -88 45 -89 47 -91 65
-75 19 17 18 20 -25 106 -40 79 -66 109 -92 109 -5 0 -94 -43 -198 -96z"/>
<path d="M1851 774 c0 -11 3 -14 6 -6 3 7 2 16 -1 19 -3 4 -6 -2 -5 -13z"/>
<path d="M4031 774 c0 -11 3 -14 6 -6 3 7 2 16 -1 19 -3 4 -6 -2 -5 -13z"/>
<path d="M2014 708 l-19 -23 23 19 c21 18 27 26 19 26 -2 0 -12 -10 -23 -22z"/>
<path d="M4089 613 c-13 -16 -12 -17 4 -4 16 13 21 21 13 21 -2 0 -10 -8 -17
-17z"/>
<path d="M5441 594 c0 -11 3 -14 6 -6 3 7 2 16 -1 19 -3 4 -6 -2 -5 -13z"/>
<path d="M1870 579 c0 -5 5 -7 10 -4 6 3 10 8 10 11 0 2 -4 4 -10 4 -5 0 -10
-5 -10 -11z"/>
<path d="M6884 90 c0 -52 1 -74 3 -47 2 26 2 68 0 95 -2 26 -3 4 -3 -48z"/>
<path d="M4733 60 c0 -36 2 -50 4 -32 2 17 2 47 0 65 -2 17 -4 3 -4 -33z"/>
</g>
</svg>
